# xmcd
#
# Track frame offsets: 
#        150
#        6599
#        18660
#        33433
#        48946
#        60899
#        77690
#        87140
#        98133
#        111100
#        121819
#        136719
#        156446
#        167477
#
# Disc length: 2369 seconds
#
# Revision: 5
# Processed by: cddbd v1.5.2PL0 Copyright (c) Steve Scherf et al.
# Submitted via: ExactAudioCopyFreeDBPlugin 1.0
#
DISCID=a2093f0e
DTITLE=Various Artist - Country Spectacular Vol 2 Welcom To My World
DYEAR=1999
DGENRE=Country
TTITLE0=Tammy Wynette - Welcome To My World
TTITLE1=Lou Cristic - Two Faces Have I
TTITLE2=Jeanie C Riley - Harper Vally PTA
TTITLE3=Tom Wopal - True Love
TTITLE4=Connie Smith - Once A Day
TTITLE5=Tanya Tucker - The Night They Drove Old Dixie Home
TTITLE6=Razzy Bailey - 9.999.999 Tears
TTITLE7=Johnny Russell - Got No Reason For Going Home
TTITLE8=Patsy Loveless - It's What You Don't Do
TTITLE9=Tammy Wynette - When The Grass Grows Over Me
TTITLE10=Mel Tillis - Detroit City
TTITLE11=Bellamy Brothers - If I Said You Had A Beautiful Body
TTITLE12=Lynn Anderson - Even Cowgirls Get The Blues
TTITLE13=George Jones - The Race Is On
EXTD=YEAR: 1999
EXTT0=
EXTT1=
EXTT2=
EXTT3=
EXTT4=
EXTT5=
EXTT6=
EXTT7=
EXTT8=
EXTT9=
EXTT10=
EXTT11=
EXTT12=
EXTT13=
PLAYORDER=
